<svg width="50" height="38" viewBox="0 0 50 38" fill="none" xmlns="http://www.w3.org/2000/svg">
<path fill-rule="evenodd" clip-rule="evenodd" d="M40.3776 4.67467C39.1805 5.02936 38.0455 5.5614 36.4316 6.00477C28.3357 8.30142 21.1088 7.77825 12.9863 6.31513C11.5853 6.06685 9.4926 5.65008 8.78321 6.83831C7.89648 8.26595 9.34186 9.97736 10.0424 10.5271C12.9509 12.7972 14.1834 12.3006 18.3777 11.937C23.6981 11.4139 31.262 10.536 36.1124 8.66498C37.9315 7.9968 39.6364 7.05162 41.1668 5.8629C41.8496 5.21558 41.4151 4.36431 40.3776 4.67467Z" fill="#29847B"/>
<path fill-rule="evenodd" clip-rule="evenodd" d="M23.6272 12.6907C16.5333 13.4533 17.5974 23.5 21.4369 22.8084C23.1572 22.498 22.4656 20.5029 22.439 19.6605C22.368 16.885 24.8775 16.5392 25.8263 18.2328C26.979 20.2989 25.7199 25.7701 25.1258 27.9869C25.0194 28.386 24.5937 29.4678 24.8243 29.7604C25.3031 30.4432 26.1366 29.4678 26.3051 29.2904C28.9653 26.4883 31.5635 19.6605 29.4442 15.8475C28.9093 14.7933 28.0665 13.9267 27.0275 13.3629C25.9885 12.799 24.8026 12.5646 23.6272 12.6907Z" fill="#29847B"/>
<path fill-rule="evenodd" clip-rule="evenodd" d="M23.8666 0.134555C23.4911 0.164992 23.1258 0.2718 22.793 0.44843C22.4603 0.625059 22.1671 0.867788 21.9315 1.16174C21.6958 1.45569 21.5227 1.79466 21.4227 2.15789C21.3227 2.52111 21.298 2.90093 21.35 3.27406C21.402 3.64718 21.5297 4.00576 21.7252 4.3278C21.9207 4.64984 22.1799 4.92856 22.4869 5.14687C22.7939 5.36518 23.1423 5.51849 23.5107 5.59739C23.8791 5.67629 24.2597 5.67912 24.6292 5.60572C24.9868 5.55198 25.33 5.42732 25.6386 5.23908C25.9473 5.05083 26.2153 4.8028 26.4268 4.50953C26.6383 4.21627 26.789 3.8837 26.8701 3.53137C26.9513 3.17903 26.9612 2.81402 26.8993 2.4578C26.78 2.15037 26.6346 1.85371 26.4648 1.57106C26.2342 1.03015 26.784 -0.45069 23.8666 0.134555Z" fill="#FF0000"/>
<path fill-rule="evenodd" clip-rule="evenodd" d="M10.062 35.3206C10.466 35.28 10.8731 35.28 11.2772 35.3206C11.4323 35.3644 11.5667 35.4623 11.6559 35.5966C11.745 35.7309 11.7831 35.8927 11.7633 36.0527C11.7695 36.2123 11.7206 36.3691 11.6249 36.4968C11.5293 36.6246 11.3925 36.7156 11.2377 36.7545C10.8457 36.8091 10.4479 36.8091 10.0559 36.7545V35.3023L10.062 35.3206ZM10.062 33.1271C10.7546 33.1271 11.6175 32.957 11.581 33.7985C11.581 34.1023 11.3896 34.4426 11.1496 34.4517C10.8002 34.4517 10.4144 34.4517 10.0559 34.4517V33.3064V33.1271H10.062ZM8.96828 37.7054C9.46045 37.7692 10.3658 37.7054 10.9035 37.7054C11.5628 37.7054 12.0397 37.6416 12.4529 37.2801C12.7391 37.0131 12.9232 36.6547 12.9737 36.2665C13.0241 35.8784 12.9378 35.4848 12.7294 35.1535C12.6675 35.0532 12.5918 34.9622 12.5046 34.8831C12.459 34.8466 12.4256 34.8193 12.3739 34.7828C12.3516 34.767 12.3303 34.7497 12.3101 34.7312C12.2676 34.6978 12.3101 34.7312 12.2767 34.7039C12.2582 34.6878 12.2419 34.6694 12.2281 34.6492C12.4006 34.5181 12.5379 34.3462 12.6277 34.149C12.7174 33.9518 12.7568 33.7354 12.7424 33.5193C12.7279 33.3031 12.6601 33.0939 12.5449 32.9104C12.4296 32.7269 12.2707 32.5748 12.0823 32.4679C11.66 32.2096 11.1709 32.237 10.6422 32.237C10.1136 32.237 9.48171 32.2035 8.97436 32.237V37.7054H8.96828ZM34.661 37.0279V35.2051C35.4326 35.2051 36.1617 35.2537 36.1587 36.1165C36.17 36.272 36.1375 36.4275 36.0651 36.5655C35.9926 36.7034 35.883 36.8184 35.7486 36.8973C35.4448 37.0766 35.0498 37.0279 34.661 37.0279ZM34.661 34.5246V32.9296C35.1288 32.9296 35.9855 32.7899 35.9491 33.7135C35.9517 33.8483 35.9198 33.9815 35.8565 34.1006C35.7933 34.2197 35.7007 34.3206 35.5876 34.394C35.3009 34.5181 34.9862 34.5632 34.6761 34.5246H34.661ZM33.5764 37.7145C34.2994 37.7145 35.6574 37.8026 36.2954 37.5626C36.5169 37.4843 36.7167 37.3544 36.8783 37.1839C37.0399 37.0133 37.1587 36.8068 37.2251 36.5814C37.4195 35.8522 37.1886 35.2811 36.5536 34.9621C36.4473 34.9074 36.3015 34.8709 36.2073 34.8132C36.5111 34.5975 36.8757 34.4365 36.9911 33.8836C37.2402 32.6684 36.3015 32.24 35.2838 32.243C34.7187 32.243 34.1475 32.243 33.5824 32.243V37.7115L33.5764 37.7145ZM1.13015 34.7069V32.2552H0V37.7237C0.380217 37.7526 0.762085 37.7526 1.1423 37.7237V34.9408C1.22129 34.9955 1.21218 34.9955 1.27294 35.0988L2.94993 37.7358H4.36262C4.26236 37.514 2.46992 35.0016 2.37574 34.8041C2.75107 34.5034 3.0878 34.1575 3.3783 33.7742C3.58185 33.5099 4.04666 32.8385 4.10439 32.4375L3.00158 32.0608C2.93778 32.1367 2.69778 32.6987 2.63702 32.8324C2.25459 33.505 1.77095 34.1146 1.20306 34.6401L1.10281 34.7069H1.13015ZM14.9046 37.7054H15.977V35.0866H18.1918V37.7115H19.2703V32.243H18.2009V34.3697H15.9892V32.243H14.9228V37.7115L14.9046 37.7054ZM4.82744 37.7054H8.16928V36.7515H5.94847V35.3206H7.63155V34.4092H5.91506V33.1788H7.93535L8.07206 32.2673H4.81225V37.7358L4.82744 37.7054ZM46.3726 37.7054H47.3934V35.8401L48.8273 37.7024H50C49.8653 37.4898 49.7161 37.2868 49.5534 37.0948L48.2015 35.3297L49.3863 33.993C49.5376 33.8473 49.6759 33.6888 49.7995 33.519C49.4957 33.519 49.125 33.5008 48.8334 33.519C48.6329 33.519 48.5478 33.7226 48.3169 33.9626C48.165 34.1175 48.0131 34.3211 47.8673 34.4699C47.7215 34.6188 47.5635 34.8132 47.3994 34.9651V32H46.3847V37.7024L46.3726 37.7054ZM40.1385 35.676C40.1385 36.1469 40.1628 36.551 39.9137 36.8517C39.8612 36.9272 39.7926 36.99 39.7129 37.0358C39.6332 37.0816 39.5444 37.1092 39.4528 37.1166C39.3612 37.124 39.2691 37.111 39.1831 37.0786C39.0971 37.0462 39.0193 36.9952 38.9553 36.9292C38.8914 36.8632 38.8428 36.7838 38.8132 36.6969C38.7835 36.6099 38.7735 36.5174 38.7838 36.4261C38.7941 36.3347 38.8244 36.2468 38.8727 36.1686C38.921 36.0904 38.986 36.0239 39.0631 35.9737C39.384 35.7691 39.758 35.6634 40.1385 35.6699V35.676ZM38.0119 33.8775L38.1881 34.6795C38.2853 34.6279 38.4676 34.4578 38.6803 34.3423C39.3274 33.996 40.178 34.0567 40.1294 35.0107C39.5826 35.0715 38.8838 35.0988 38.4615 35.3418C37.459 35.9251 37.5106 37.435 38.6408 37.754C38.9089 37.8246 39.1903 37.8286 39.4603 37.7656C39.7304 37.7025 39.9809 37.5745 40.1902 37.3925L40.2206 37.4472V37.4685L40.3421 37.7115H41.3537C41.0985 36.8366 41.1715 36.8487 41.1715 35.8887C41.1715 35.2537 41.2474 34.5914 40.9345 34.1327C40.412 33.361 39.1785 33.2972 38.3491 33.6952C38.2246 33.756 38.1152 33.841 38.0149 33.8805L38.0119 33.8775ZM22.2141 35.676C22.2141 36.1257 22.2141 36.5479 21.9863 36.8517C21.868 36.9844 21.7041 37.0675 21.5272 37.0844C21.3503 37.1013 21.1735 37.0507 21.0323 36.9429C20.974 36.8726 20.9303 36.7915 20.9038 36.7041C20.8772 36.6168 20.8684 36.525 20.8777 36.4342C20.887 36.3434 20.9144 36.2554 20.9582 36.1753C21.0019 36.0952 21.0612 36.0246 21.1326 35.9677C21.3908 35.7459 21.8222 35.7125 22.2141 35.6639V35.676ZM20.0875 33.8988L20.2667 34.6704L20.765 34.3423C20.9627 34.2313 21.1828 34.1659 21.409 34.1509C21.9498 34.1205 22.2415 34.4547 22.205 35.0046C21.5974 35.1231 21.0566 35.0563 20.5432 35.3418C20.3133 35.4675 20.1244 35.6566 19.9989 35.8866C19.8734 36.1166 19.8166 36.3778 19.8353 36.6391C19.8931 37.6021 20.7467 37.9576 21.6187 37.7449C21.8637 37.6883 22.0898 37.5689 22.2749 37.3986C22.3198 37.5031 22.3716 37.6046 22.4298 37.7024L23.4324 37.7206C22.9676 36.2958 23.56 34.9864 23.001 34.1205C22.8455 33.9142 22.6439 33.7472 22.4123 33.6327C22.1808 33.5182 21.9256 33.4595 21.6673 33.4613C21.1055 33.4207 20.5471 33.5764 20.0875 33.9018V33.8988ZM30.6599 35.6791C30.6599 36.1287 30.6599 36.5692 30.4259 36.8548C30.0705 37.274 29.2411 37.1586 29.3262 36.4143C29.393 35.8067 30.1555 35.7125 30.6599 35.6791ZM28.5332 33.8775L28.7094 34.6795C29.0345 34.4699 29.2593 34.1874 29.8396 34.1509C30.4199 34.1145 30.6659 34.4547 30.6477 35.0107C29.6482 35.0866 28.2173 35.2051 28.278 36.6391C28.2807 36.8959 28.3687 37.1445 28.5282 37.3458C28.6877 37.5471 28.9097 37.6897 29.1591 37.751C29.6664 37.8907 30.508 37.7176 30.6994 37.3864C30.6994 37.3864 30.6994 37.3864 30.6994 37.4047L30.8695 37.7085H31.8599C31.6047 36.7971 31.6746 36.873 31.6746 35.8856C31.6746 35.2234 31.7566 34.6279 31.4376 34.1297C30.9424 33.3641 29.6968 33.2942 28.8522 33.6922C28.7307 33.7499 28.6153 33.841 28.5211 33.8775H28.5332ZM42.9639 33.8593V33.5312H41.9492V37.7024C42.2899 37.7298 42.6323 37.7298 42.973 37.7024C42.9548 36.9915 42.973 36.2532 42.973 35.5393C42.9401 35.2191 42.9903 34.8957 43.1188 34.6006C43.1865 34.4783 43.2842 34.3753 43.4027 34.3014C43.5213 34.2275 43.6568 34.1851 43.7963 34.1783C44.5224 34.1783 44.6379 34.8223 44.6379 35.512C44.6379 36.2472 44.6379 36.9824 44.6379 37.7176C44.9811 37.7363 45.3253 37.7302 45.6678 37.6994V35.8765C45.6678 34.9378 45.7771 33.6861 44.3796 33.4674C43.5168 33.3337 43.2586 33.7013 42.9669 33.8502L42.9639 33.8593ZM25.0395 33.8593V33.5312H24.0248V37.7145H25.0456C25.0456 36.9915 25.0456 36.2593 25.0456 35.5363C25.0105 35.2144 25.063 34.889 25.1975 34.5945C25.2608 34.4699 25.3569 34.3648 25.4753 34.2906C25.5937 34.2163 25.73 34.1756 25.8698 34.1728C26.0095 34.17 26.1474 34.2052 26.2687 34.2746C26.39 34.3441 26.4902 34.4452 26.5585 34.5671C26.6912 34.8622 26.7435 35.1871 26.7104 35.5089C26.7104 36.2441 26.7104 36.9793 26.7104 37.7145H27.7373C27.7373 37.1069 27.7373 36.4993 27.7373 35.8917C27.7373 34.9985 27.8588 33.6983 26.4552 33.4856C26.0631 33.4142 25.6585 33.4808 25.3099 33.674C25.2063 33.733 25.1069 33.799 25.0122 33.8714L25.0395 33.8593Z" fill="black"/>
</svg>
